<?xml version="1.0" encoding="utf-8"?>
<svg xmlns="http://www.w3.org/2000/svg" version="1.1" width="2000" height="1500">

<line x1="0" y1="200" x2="100" y2="200" stroke="rgb(255,200,200)" />
<text x="50" y="200" fill="black" text-anchor="middle" >0</text>
<line x1="100" y1="200" x2="200" y2="200" stroke="rgb(255,200,200)" />
<text x="150" y="200" fill="black" text-anchor="middle" >1</text>
<line x1="200" y1="200" x2="300" y2="200" stroke="rgb(255,200,200)" />
<text x="250" y="200" fill="black" text-anchor="middle" >2</text>
<line x1="300" y1="200" x2="400" y2="200" stroke="rgb(255,200,200)" />
<text x="350" y="200" fill="black" text-anchor="middle" >3</text>
<line x1="400" y1="200" x2="500" y2="200" stroke="rgb(255,200,200)" />
<text x="450" y="200" fill="black" text-anchor="middle" >4</text>
<line x1="500" y1="200" x2="600" y2="200" stroke="rgb(255,200,200)" />
<text x="550" y="200" fill="black" text-anchor="middle" >5</text>
<line x1="600" y1="200" x2="700" y2="200" stroke="rgb(255,200,200)" />
<text x="650" y="200" fill="black" text-anchor="middle" >6</text>
<line x1="700" y1="200" x2="800" y2="200" stroke="rgb(255,200,200)" />
<text x="750" y="200" fill="black" text-anchor="middle" >7</text>
<line x1="800" y1="200" x2="900" y2="200" stroke="rgb(255,200,200)" />
<text x="850" y="200" fill="black" text-anchor="middle" >8</text>
<line x1="900" y1="200" x2="1000" y2="200" stroke="rgb(255,200,200)" />
<text x="950" y="200" fill="black" text-anchor="middle" >9</text>
<line x1="1000" y1="200" x2="1100" y2="200" stroke="rgb(255,200,200)" />
<text x="1050" y="200" fill="black" text-anchor="middle" >10</text>
<line x1="1100" y1="200" x2="1200" y2="200" stroke="rgb(255,200,200)" />
<text x="1150" y="200" fill="black" text-anchor="middle" >11</text>
<line x1="1200" y1="200" x2="1300" y2="200" stroke="rgb(255,200,200)" />
<text x="1250" y="200" fill="black" text-anchor="middle" >12</text>
<line x1="1300" y1="200" x2="1400" y2="200" stroke="rgb(255,200,200)" />
<text x="1350" y="200" fill="black" text-anchor="middle" >13</text>
<line x1="1400" y1="200" x2="1500" y2="200" stroke="rgb(255,200,200)" />
<text x="1450" y="200" fill="black" text-anchor="middle" >14</text>
<line x1="1500" y1="200" x2="1600" y2="200" stroke="rgb(255,200,200)" />
<text x="1550" y="200" fill="black" text-anchor="middle" >15</text>
<line x1="1600" y1="200" x2="1700" y2="200" stroke="rgb(255,200,200)" />
<text x="1650" y="200" fill="black" text-anchor="middle" >16</text>
<line x1="1700" y1="200" x2="1800" y2="200" stroke="rgb(255,200,200)" />
<text x="1750" y="200" fill="black" text-anchor="middle" >17</text>
<line x1="1800" y1="200" x2="1900" y2="200" stroke="rgb(255,200,200)" />
<text x="1850" y="200" fill="black" text-anchor="middle" >18</text>
<line x1="1900" y1="200" x2="2000" y2="200" stroke="rgb(255,200,200)" />
<text x="1950" y="200" fill="black" text-anchor="middle" >19</text>
<line x1="2000" y1="200" x2="2100" y2="200" stroke="rgb(255,200,200)" />
<text x="2050" y="200" fill="black" text-anchor="middle" >20</text>
<line x1="2100" y1="200" x2="2200" y2="200" stroke="rgb(255,200,200)" />
<text x="2150" y="200" fill="black" text-anchor="middle" >21</text>
<line x1="2200" y1="200" x2="2300" y2="200" stroke="rgb(255,200,200)" />
<text x="2250" y="200" fill="black" text-anchor="middle" >22</text>
<line x1="2300" y1="200" x2="2400" y2="200" stroke="rgb(255,200,200)" />
<text x="2350" y="200" fill="black" text-anchor="middle" >23</text>
<line x1="2400" y1="200" x2="2600" y2="200" stroke="rgb(255,200,200)" />
<text x="2500" y="200" fill="black" text-anchor="middle" >24</text>
<line x1="2600" y1="200" x2="2700" y2="200" stroke="rgb(255,200,200)" />
<text x="2650" y="200" fill="black" text-anchor="middle" >25</text>
<line x1="2700" y1="200" x2="2800" y2="200" stroke="rgb(255,200,200)" />
<text x="2750" y="200" fill="black" text-anchor="middle" >26</text>
<line x1="2800" y1="200" x2="2900" y2="200" stroke="rgb(255,200,200)" />
<text x="2850" y="200" fill="black" text-anchor="middle" >27</text>
<line x1="2900" y1="200" x2="3000" y2="200" stroke="rgb(255,200,200)" />
<text x="2950" y="200" fill="black" text-anchor="middle" >28</text>
<line x1="3000" y1="200" x2="3100" y2="200" stroke="rgb(255,200,200)" />
<text x="3050" y="200" fill="black" text-anchor="middle" >29</text>
<line x1="3100" y1="200" x2="3300" y2="200" stroke="rgb(255,200,200)" />
<text x="3200" y="200" fill="black" text-anchor="middle" >30</text>
<line x1="3300" y1="200" x2="3400" y2="200" stroke="rgb(255,200,200)" />
<text x="3350" y="200" fill="black" text-anchor="middle" >31</text>
<line x1="3400" y1="200" x2="3500" y2="200" stroke="rgb(255,200,200)" />
<text x="3450" y="200" fill="black" text-anchor="middle" >32</text>
<line x1="3500" y1="200" x2="3600" y2="200" stroke="rgb(255,200,200)" />
<text x="3550" y="200" fill="black" text-anchor="middle" >33</text>
<line x1="3600" y1="200" x2="3700" y2="200" stroke="rgb(255,200,200)" />
<text x="3650" y="200" fill="black" text-anchor="middle" >34</text>
<line x1="3700" y1="200" x2="3800" y2="200" stroke="rgb(255,200,200)" />
<text x="3750" y="200" fill="black" text-anchor="middle" >35</text>
<line x1="3800" y1="200" x2="3900" y2="200" stroke="rgb(255,200,200)" />
<text x="3850" y="200" fill="black" text-anchor="middle" >36</text>
<line x1="3900" y1="200" x2="4000" y2="200" stroke="rgb(255,200,200)" />
<text x="3950" y="200" fill="black" text-anchor="middle" >37</text>
<line x1="4000" y1="200" x2="4100" y2="200" stroke="rgb(255,200,200)" />
<text x="4050" y="200" fill="black" text-anchor="middle" >38</text>
<line x1="4100" y1="200" x2="4300" y2="200" stroke="rgb(255,200,200)" />
<text x="4200" y="200" fill="black" text-anchor="middle" >39</text>
<line x1="4300" y1="200" x2="4500" y2="200" stroke="rgb(255,200,200)" />
<text x="4400" y="200" fill="black" text-anchor="middle" >40</text>
<line x1="4500" y1="200" x2="4600" y2="200" stroke="rgb(255,200,200)" />
<text x="4550" y="200" fill="black" text-anchor="middle" >41</text>
<line x1="4600" y1="200" x2="4700" y2="200" stroke="rgb(255,200,200)" />
<text x="4650" y="200" fill="black" text-anchor="middle" >42</text>
<line x1="4700" y1="200" x2="4800" y2="200" stroke="rgb(255,200,200)" />
<text x="4750" y="200" fill="black" text-anchor="middle" >43</text>
<line x1="4800" y1="200" x2="4900" y2="200" stroke="rgb(255,200,200)" />
<text x="4850" y="200" fill="black" text-anchor="middle" >44</text>
<line x1="4900" y1="200" x2="5000" y2="200" stroke="rgb(255,200,200)" />
<text x="4950" y="200" fill="black" text-anchor="middle" >45</text>
<line x1="200" y1="500" x2="500" y2="500" stroke="rgb(255,200,200)" />
<text x="350" y="500" fill="black" text-anchor="middle" >46</text>
<line x1="500" y1="500" x2="1000" y2="500" stroke="rgb(255,200,200)" />
<text x="750" y="500" fill="black" text-anchor="middle" >47</text>
<line x1="1000" y1="500" x2="1300" y2="500" stroke="rgb(255,200,200)" />
<text x="1150" y="500" fill="black" text-anchor="middle" >48</text>
<line x1="1300" y1="500" x2="1600" y2="500" stroke="rgb(255,200,200)" />
<text x="1450" y="500" fill="black" text-anchor="middle" >49</text>
<line x1="1600" y1="500" x2="1700" y2="500" stroke="rgb(255,200,200)" />
<text x="1650" y="500" fill="black" text-anchor="middle" >50</text>
<line x1="1700" y1="500" x2="1800" y2="500" stroke="rgb(255,200,200)" />
<text x="1750" y="500" fill="black" text-anchor="middle" >51</text>
<line x1="1800" y1="500" x2="1900" y2="500" stroke="rgb(255,200,200)" />
<text x="1850" y="500" fill="black" text-anchor="middle" >52</text>
<line x1="1900" y1="500" x2="2000" y2="500" stroke="rgb(255,200,200)" />
<text x="1950" y="500" fill="black" text-anchor="middle" >53</text>
<line x1="2000" y1="500" x2="2000" y2="200" stroke="rgb(255,200,200)" />
<text x="2000" y="350" fill="black" text-anchor="middle" >54</text>
<line x1="0" y1="700" x2="300" y2="700" stroke="rgb(255,200,200)" />
<text x="150" y="700" fill="black" text-anchor="middle" >55</text>
<line x1="300" y1="700" x2="600" y2="700" stroke="rgb(255,200,200)" />
<text x="450" y="700" fill="black" text-anchor="middle" >56</text>
<line x1="600" y1="700" x2="1000" y2="500" stroke="rgb(255,200,200)" />
<text x="800" y="600" fill="black" text-anchor="middle" >57</text>
<line x1="600" y1="700" x2="900" y2="800" stroke="rgb(255,200,200)" />
<text x="750" y="750" fill="black" text-anchor="middle" >58</text>
<line x1="900" y1="800" x2="1100" y2="800" stroke="rgb(255,200,200)" />
<text x="1000" y="800" fill="black" text-anchor="middle" >59</text>
<line x1="1100" y1="800" x2="1300" y2="800" stroke="rgb(255,200,200)" />
<text x="1200" y="800" fill="black" text-anchor="middle" >60</text>
<line x1="1300" y1="800" x2="1500" y2="800" stroke="rgb(255,200,200)" />
<text x="1400" y="800" fill="black" text-anchor="middle" >61</text>
<line x1="1500" y1="800" x2="1700" y2="800" stroke="rgb(255,200,200)" />
<text x="1600" y="800" fill="black" text-anchor="middle" >62</text>
<line x1="1700" y1="800" x2="2000" y2="800" stroke="rgb(255,200,200)" />
<text x="1850" y="800" fill="black" text-anchor="middle" >63</text>
<line x1="2000" y1="800" x2="2200" y2="700" stroke="rgb(255,200,200)" />
<text x="2100" y="750" fill="black" text-anchor="middle" >64</text>
<line x1="2200" y1="700" x2="2400" y2="700" stroke="rgb(255,200,200)" />
<text x="2300" y="700" fill="black" text-anchor="middle" >65</text>
<line x1="2400" y1="700" x2="2500" y2="700" stroke="rgb(255,200,200)" />
<text x="2450" y="700" fill="black" text-anchor="middle" >66</text>
<line x1="2500" y1="700" x2="2700" y2="700" stroke="rgb(255,200,200)" />
<text x="2600" y="700" fill="black" text-anchor="middle" >67</text>
<line x1="2700" y1="700" x2="2800" y2="700" stroke="rgb(255,200,200)" />
<text x="2750" y="700" fill="black" text-anchor="middle" >68</text>
<line x1="2800" y1="700" x2="3000" y2="700" stroke="rgb(255,200,200)" />
<text x="2900" y="700" fill="black" text-anchor="middle" >69</text>
<line x1="3000" y1="700" x2="3100" y2="200" stroke="rgb(255,200,200)" />
<text x="3050" y="450" fill="black" text-anchor="middle" >70</text>
<line x1="2000" y1="800" x2="3300" y2="800" stroke="rgb(255,200,200)" />
<text x="2650" y="800" fill="black" text-anchor="middle" >71</text>
<line x1="3300" y1="800" x2="3400" y2="800" stroke="rgb(255,200,200)" />
<text x="3350" y="800" fill="black" text-anchor="middle" >72</text>
<line x1="3400" y1="800" x2="3500" y2="800" stroke="rgb(255,200,200)" />
<text x="3450" y="800" fill="black" text-anchor="middle" >73</text>
<line x1="3500" y1="800" x2="3600" y2="800" stroke="rgb(255,200,200)" />
<text x="3550" y="800" fill="black" text-anchor="middle" >74</text>
<line x1="3600" y1="800" x2="3700" y2="200" stroke="rgb(255,200,200)" />
<text x="3650" y="500" fill="black" text-anchor="middle" >75</text>
<line x1="4100" y1="200" x2="4200" y2="800" stroke="rgb(255,200,200)" />
<text x="4150" y="500" fill="black" text-anchor="middle" >76</text>
<line x1="4200" y1="800" x2="4300" y2="800" stroke="rgb(255,200,200)" />
<text x="4250" y="800" fill="black" text-anchor="middle" >77</text>
<line x1="4300" y1="800" x2="4400" y2="800" stroke="rgb(255,200,200)" />
<text x="4350" y="800" fill="black" text-anchor="middle" >78</text>
<line x1="4400" y1="800" x2="4500" y2="800" stroke="rgb(255,200,200)" />
<text x="4450" y="800" fill="black" text-anchor="middle" >79</text>
<line x1="4500" y1="800" x2="4600" y2="800" stroke="rgb(255,200,200)" />
<text x="4550" y="800" fill="black" text-anchor="middle" >80</text>
<line x1="4600" y1="800" x2="4700" y2="800" stroke="rgb(255,200,200)" />
<text x="4650" y="800" fill="black" text-anchor="middle" >81</text>
<line x1="4700" y1="800" x2="4800" y2="800" stroke="rgb(255,200,200)" />
<text x="4750" y="800" fill="black" text-anchor="middle" >82</text>
<line x1="4800" y1="800" x2="4900" y2="800" stroke="rgb(255,200,200)" />
<text x="4850" y="800" fill="black" text-anchor="middle" >83</text>
<line x1="4900" y1="800" x2="5100" y2="800" stroke="rgb(255,200,200)" />
<text x="5000" y="800" fill="black" text-anchor="middle" >84</text>
<circle cx="0" cy="200" r="20" fill="rgb(85,0,0)" />
<text x="0" y="200" fill="pink" text-anchor="middle" >Pontoise</text>
<text x="0" y="210" fill="purple" text-anchor="middle" >0.0120482</text>
<circle cx="100" cy="200" r="20" fill="rgb(170,0,0)" />
<text x="100" y="200" fill="pink" text-anchor="middle" >St-OuenL'Aumone</text>
<text x="105" y="210" fill="purple" text-anchor="middle" >0.0240964</text>
<circle cx="200" cy="200" r="20" fill="rgb(170,0,0)" />
<text x="200" y="200" fill="pink" text-anchor="middle" >St-OuenL'AumoneLiesse</text>
<text x="210" y="210" fill="purple" text-anchor="middle" >0.0240964</text>
<circle cx="300" cy="200" r="20" fill="rgb(170,0,0)" />
<text x="300" y="200" fill="pink" text-anchor="middle" >Pierrelaye</text>
<text x="315" y="210" fill="purple" text-anchor="middle" >0.0240964</text>
<circle cx="400" cy="200" r="20" fill="rgb(170,0,0)" />
<text x="400" y="200" fill="pink" text-anchor="middle" >MontignyBeauchamp</text>
<text x="420" y="210" fill="purple" text-anchor="middle" >0.0240964</text>
<circle cx="500" cy="200" r="20" fill="rgb(170,0,0)" />
<text x="500" y="200" fill="pink" text-anchor="middle" >FranconvilleLePlessis-Bouchard</text>
<text x="525" y="210" fill="purple" text-anchor="middle" >0.0240964</text>
<circle cx="600" cy="200" r="20" fill="rgb(170,0,0)" />
<text x="600" y="200" fill="pink" text-anchor="middle" >Cernay</text>
<text x="630" y="210" fill="purple" text-anchor="middle" >0.0240964</text>
<circle cx="700" cy="200" r="20" fill="rgb(170,0,0)" />
<text x="700" y="200" fill="pink" text-anchor="middle" >ErmontEaubonne</text>
<text x="735" y="210" fill="purple" text-anchor="middle" >0.0240964</text>
<circle cx="800" cy="200" r="20" fill="rgb(170,0,0)" />
<text x="800" y="200" fill="pink" text-anchor="middle" >St-Gratien</text>
<text x="840" y="210" fill="purple" text-anchor="middle" >0.0240964</text>
<circle cx="900" cy="200" r="20" fill="rgb(170,0,0)" />
<text x="900" y="200" fill="pink" text-anchor="middle" >EpinaySurSeine</text>
<text x="945" y="210" fill="purple" text-anchor="middle" >0.0240964</text>
<circle cx="1000" cy="200" r="20" fill="rgb(170,0,0)" />
<text x="1000" y="200" fill="pink" text-anchor="middle" >Gennevilliers</text>
<text x="1050" y="210" fill="purple" text-anchor="middle" >0.0240964</text>
<circle cx="1100" cy="200" r="20" fill="rgb(170,0,0)" />
<text x="1100" y="200" fill="pink" text-anchor="middle" >LesGresillons</text>
<text x="1155" y="210" fill="purple" text-anchor="middle" >0.0240964</text>
<circle cx="1200" cy="200" r="20" fill="rgb(170,0,0)" />
<text x="1200" y="200" fill="pink" text-anchor="middle" >St-Ouen</text>
<text x="1260" y="210" fill="purple" text-anchor="middle" >0.0240964</text>
<circle cx="1300" cy="200" r="20" fill="rgb(170,0,0)" />
<text x="1300" y="200" fill="pink" text-anchor="middle" >PorteDeClichy</text>
<text x="1365" y="210" fill="purple" text-anchor="middle" >0.0240964</text>
<circle cx="1400" cy="200" r="20" fill="rgb(170,0,0)" />
<text x="1400" y="200" fill="pink" text-anchor="middle" >PereireLevallois</text>
<text x="1470" y="210" fill="purple" text-anchor="middle" >0.0240964</text>
<circle cx="1500" cy="200" r="20" fill="rgb(170,0,0)" />
<text x="1500" y="200" fill="pink" text-anchor="middle" >NeuillyPorteMaillot</text>
<text x="1575" y="210" fill="purple" text-anchor="middle" >0.0240964</text>
<circle cx="1600" cy="200" r="20" fill="rgb(170,0,0)" />
<text x="1600" y="200" fill="pink" text-anchor="middle" >AvenueFoch</text>
<text x="1680" y="210" fill="purple" text-anchor="middle" >0.0240964</text>
<circle cx="1700" cy="200" r="20" fill="rgb(170,0,0)" />
<text x="1700" y="200" fill="pink" text-anchor="middle" >AvenueHenriMartin</text>
<text x="1785" y="210" fill="purple" text-anchor="middle" >0.0240964</text>
<circle cx="1800" cy="200" r="20" fill="rgb(170,0,0)" />
<text x="1800" y="200" fill="pink" text-anchor="middle" >Boulainvilliers</text>
<text x="1890" y="210" fill="purple" text-anchor="middle" >0.0240964</text>
<circle cx="1900" cy="200" r="20" fill="rgb(170,0,0)" />
<text x="1900" y="200" fill="pink" text-anchor="middle" >AvenueDuPdtKennedy</text>
<text x="1995" y="210" fill="purple" text-anchor="middle" >0.0240964</text>
<circle cx="2000" cy="200" r="20" fill="rgb(255,0,0)" />
<text x="2000" y="200" fill="pink" text-anchor="middle" >ChampDeMars</text>
<text x="2100" y="210" fill="purple" text-anchor="middle" >0.0361446</text>
<circle cx="2100" cy="200" r="20" fill="rgb(170,0,0)" />
<text x="2100" y="200" fill="pink" text-anchor="middle" >PontDeL'Alma</text>
<text x="2205" y="210" fill="purple" text-anchor="middle" >0.0240964</text>
<circle cx="2200" cy="200" r="20" fill="rgb(170,0,0)" />
<text x="2200" y="200" fill="pink" text-anchor="middle" >Invalides</text>
<text x="2310" y="210" fill="purple" text-anchor="middle" >0.0240964</text>
<circle cx="2300" cy="200" r="20" fill="rgb(170,0,0)" />
<text x="2300" y="200" fill="pink" text-anchor="middle" >MuseeD'Orsay</text>
<text x="2415" y="210" fill="purple" text-anchor="middle" >0.0240964</text>
<circle cx="2400" cy="200" r="20" fill="rgb(170,0,0)" />
<text x="2400" y="200" fill="pink" text-anchor="middle" >St-Michel</text>
<text x="2520" y="210" fill="purple" text-anchor="middle" >0.0240964</text>
<circle cx="2600" cy="200" r="20" fill="rgb(170,0,0)" />
<text x="2600" y="200" fill="pink" text-anchor="middle" >ParisAusterlitz</text>
<text x="2730" y="210" fill="purple" text-anchor="middle" >0.0240964</text>
<circle cx="2700" cy="200" r="20" fill="rgb(170,0,0)" />
<text x="2700" y="200" fill="pink" text-anchor="middle" >BibliothequeFrancoisMitterrand</text>
<text x="2835" y="210" fill="purple" text-anchor="middle" >0.0240964</text>
<circle cx="2800" cy="200" r="20" fill="rgb(170,0,0)" />
<text x="2800" y="200" fill="pink" text-anchor="middle" >IvrySurSeine</text>
<text x="2940" y="210" fill="purple" text-anchor="middle" >0.0240964</text>
<circle cx="2900" cy="200" r="20" fill="rgb(170,0,0)" />
<text x="2900" y="200" fill="pink" text-anchor="middle" >VitrySurSeine</text>
<text x="3045" y="210" fill="purple" text-anchor="middle" >0.0240964</text>
<circle cx="3000" cy="200" r="20" fill="rgb(170,0,0)" />
<text x="3000" y="200" fill="pink" text-anchor="middle" >LesArdoines</text>
<text x="3150" y="210" fill="purple" text-anchor="middle" >0.0240964</text>
<circle cx="3100" cy="200" r="20" fill="rgb(255,0,0)" />
<text x="3100" y="200" fill="pink" text-anchor="middle" >ChoisyLeRoi</text>
<text x="3255" y="210" fill="purple" text-anchor="middle" >0.0361446</text>
<circle cx="3300" cy="200" r="20" fill="rgb(170,0,0)" />
<text x="3300" y="200" fill="pink" text-anchor="middle" >VilleneuveLeRoi</text>
<text x="3465" y="210" fill="purple" text-anchor="middle" >0.0240964</text>
<circle cx="3400" cy="200" r="20" fill="rgb(170,0,0)" />
<text x="3400" y="200" fill="pink" text-anchor="middle" >Ablon</text>
<text x="3570" y="210" fill="purple" text-anchor="middle" >0.0240964</text>
<circle cx="3500" cy="200" r="20" fill="rgb(170,0,0)" />
<text x="3500" y="200" fill="pink" text-anchor="middle" >AthisMons</text>
<text x="3675" y="210" fill="purple" text-anchor="middle" >0.0240964</text>
<circle cx="3600" cy="200" r="20" fill="rgb(170,0,0)" />
<text x="3600" y="200" fill="pink" text-anchor="middle" >Juvisy</text>
<text x="3780" y="210" fill="purple" text-anchor="middle" >0.0240964</text>
<circle cx="3700" cy="200" r="20" fill="rgb(255,0,0)" />
<text x="3700" y="200" fill="pink" text-anchor="middle" >SavignySurOrge</text>
<text x="3885" y="210" fill="purple" text-anchor="middle" >0.0361446</text>
<circle cx="3800" cy="200" r="20" fill="rgb(170,0,0)" />
<text x="3800" y="200" fill="pink" text-anchor="middle" >EpinaySurOrge</text>
<text x="3990" y="210" fill="purple" text-anchor="middle" >0.0240964</text>
<circle cx="3900" cy="200" r="20" fill="rgb(170,0,0)" />
<text x="3900" y="200" fill="pink" text-anchor="middle" >Ste-GenevieveDesBois</text>
<text x="4095" y="210" fill="purple" text-anchor="middle" >0.0240964</text>
<circle cx="4000" cy="200" r="20" fill="rgb(170,0,0)" />
<text x="4000" y="200" fill="pink" text-anchor="middle" >St-MichelSurOrge</text>
<text x="4200" y="210" fill="purple" text-anchor="middle" >0.0240964</text>
<circle cx="4100" cy="200" r="20" fill="rgb(255,0,0)" />
<text x="4100" y="200" fill="pink" text-anchor="middle" >Bretigny</text>
<text x="4305" y="210" fill="purple" text-anchor="middle" >0.0361446</text>
<circle cx="4300" cy="200" r="20" fill="rgb(170,0,0)" />
<text x="4300" y="200" fill="pink" text-anchor="middle" >MarollesEnHurepoix</text>
<text x="4515" y="210" fill="purple" text-anchor="middle" >0.0240964</text>
<circle cx="4500" cy="200" r="20" fill="rgb(170,0,0)" />
<text x="4500" y="200" fill="pink" text-anchor="middle" >Bouray</text>
<text x="4725" y="210" fill="purple" text-anchor="middle" >0.0240964</text>
<circle cx="4600" cy="200" r="20" fill="rgb(170,0,0)" />
<text x="4600" y="200" fill="pink" text-anchor="middle" >Lardy</text>
<text x="4830" y="210" fill="purple" text-anchor="middle" >0.0240964</text>
<circle cx="4700" cy="200" r="20" fill="rgb(170,0,0)" />
<text x="4700" y="200" fill="pink" text-anchor="middle" >Chamarande</text>
<text x="4935" y="210" fill="purple" text-anchor="middle" >0.0240964</text>
<circle cx="4800" cy="200" r="20" fill="rgb(170,0,0)" />
<text x="4800" y="200" fill="pink" text-anchor="middle" >Etrechy</text>
<text x="5040" y="210" fill="purple" text-anchor="middle" >0.0240964</text>
<circle cx="4900" cy="200" r="20" fill="rgb(170,0,0)" />
<text x="4900" y="200" fill="pink" text-anchor="middle" >Etampes</text>
<text x="5145" y="210" fill="purple" text-anchor="middle" >0.0240964</text>
<circle cx="5000" cy="200" r="20" fill="rgb(85,0,0)" />
<text x="5000" y="200" fill="pink" text-anchor="middle" >St-MartinD'Etampes</text>
<text x="5250" y="210" fill="purple" text-anchor="middle" >0.0120482</text>
<circle cx="2000" cy="500" r="20" fill="rgb(170,0,0)" />
<text x="2000" y="500" fill="pink" text-anchor="middle" >Javel</text>
<text x="2100" y="525" fill="purple" text-anchor="middle" >0.0240964</text>
<circle cx="1900" cy="500" r="20" fill="rgb(170,0,0)" />
<text x="1900" y="500" fill="pink" text-anchor="middle" >PontDuGarigliano</text>
<text x="1995" y="525" fill="purple" text-anchor="middle" >0.0240964</text>
<circle cx="1800" cy="500" r="20" fill="rgb(170,0,0)" />
<text x="1800" y="500" fill="pink" text-anchor="middle" >IssyValDeSeine</text>
<text x="1890" y="525" fill="purple" text-anchor="middle" >0.0240964</text>
<circle cx="1700" cy="500" r="20" fill="rgb(170,0,0)" />
<text x="1700" y="500" fill="pink" text-anchor="middle" >Issy</text>
<text x="1785" y="525" fill="purple" text-anchor="middle" >0.0240964</text>
<circle cx="1600" cy="500" r="20" fill="rgb(170,0,0)" />
<text x="1600" y="500" fill="pink" text-anchor="middle" >MeudonValFleury</text>
<text x="1680" y="525" fill="purple" text-anchor="middle" >0.0240964</text>
<circle cx="1300" cy="500" r="20" fill="rgb(170,0,0)" />
<text x="1300" y="500" fill="pink" text-anchor="middle" >ChavilleVelizy</text>
<text x="1365" y="525" fill="purple" text-anchor="middle" >0.0240964</text>
<circle cx="1000" cy="500" r="20" fill="rgb(255,0,0)" />
<text x="1000" y="500" fill="pink" text-anchor="middle" >ViroflayRiveGauche</text>
<text x="1050" y="525" fill="purple" text-anchor="middle" >0.0361446</text>
<circle cx="500" cy="500" r="20" fill="rgb(170,0,0)" />
<text x="500" y="500" fill="pink" text-anchor="middle" >Porchefontaine</text>
<text x="525" y="525" fill="purple" text-anchor="middle" >0.0240964</text>
<circle cx="200" cy="500" r="20" fill="rgb(85,0,0)" />
<text x="200" y="500" fill="pink" text-anchor="middle" >VersaillesChateauRiveGauche</text>
<text x="210" y="525" fill="purple" text-anchor="middle" >0.0120482</text>
<circle cx="0" cy="700" r="20" fill="rgb(85,0,0)" />
<text x="0" y="700" fill="pink" text-anchor="middle" >St-QuentinEnYvelines</text>
<text x="0" y="735" fill="purple" text-anchor="middle" >0.0120482</text>
<circle cx="300" cy="700" r="20" fill="rgb(170,0,0)" />
<text x="300" y="700" fill="pink" text-anchor="middle" >St-Cyr</text>
<text x="315" y="735" fill="purple" text-anchor="middle" >0.0240964</text>
<circle cx="600" cy="700" r="20" fill="rgb(255,0,0)" />
<text x="600" y="700" fill="pink" text-anchor="middle" >VersaillesChantiers</text>
<text x="630" y="735" fill="purple" text-anchor="middle" >0.0361446</text>
<circle cx="900" cy="800" r="20" fill="rgb(170,0,0)" />
<text x="900" y="800" fill="pink" text-anchor="middle" >PetitJouyLesLoges</text>
<text x="945" y="840" fill="purple" text-anchor="middle" >0.0240964</text>
<circle cx="1100" cy="800" r="20" fill="rgb(170,0,0)" />
<text x="1100" y="800" fill="pink" text-anchor="middle" >JouyEnJosas</text>
<text x="1155" y="840" fill="purple" text-anchor="middle" >0.0240964</text>
<circle cx="1300" cy="800" r="20" fill="rgb(170,0,0)" />
<text x="1300" y="800" fill="pink" text-anchor="middle" >Vauboyen</text>
<text x="1365" y="840" fill="purple" text-anchor="middle" >0.0240964</text>
<circle cx="1500" cy="800" r="20" fill="rgb(170,0,0)" />
<text x="1500" y="800" fill="pink" text-anchor="middle" >Bievres</text>
<text x="1575" y="840" fill="purple" text-anchor="middle" >0.0240964</text>
<circle cx="1700" cy="800" r="20" fill="rgb(170,0,0)" />
<text x="1700" y="800" fill="pink" text-anchor="middle" >Igny</text>
<text x="1785" y="840" fill="purple" text-anchor="middle" >0.0240964</text>
<circle cx="2000" cy="800" r="20" fill="rgb(255,0,0)" />
<text x="2000" y="800" fill="pink" text-anchor="middle" >MassyPalaiseau</text>
<text x="2100" y="840" fill="purple" text-anchor="middle" >0.0361446</text>
<circle cx="3300" cy="800" r="20" fill="rgb(170,0,0)" />
<text x="3300" y="800" fill="pink" text-anchor="middle" >Longjumeau</text>
<text x="3465" y="840" fill="purple" text-anchor="middle" >0.0240964</text>
<circle cx="3400" cy="800" r="20" fill="rgb(170,0,0)" />
<text x="3400" y="800" fill="pink" text-anchor="middle" >ChillyMazarin</text>
<text x="3570" y="840" fill="purple" text-anchor="middle" >0.0240964</text>
<circle cx="3500" cy="800" r="20" fill="rgb(170,0,0)" />
<text x="3500" y="800" fill="pink" text-anchor="middle" >GravignyBalizy</text>
<text x="3675" y="840" fill="purple" text-anchor="middle" >0.0240964</text>
<circle cx="3600" cy="800" r="20" fill="rgb(170,0,0)" />
<text x="3600" y="800" fill="pink" text-anchor="middle" >PetitVaux</text>
<text x="3780" y="840" fill="purple" text-anchor="middle" >0.0240964</text>
<circle cx="3000" cy="700" r="20" fill="rgb(170,0,0)" />
<text x="3000" y="700" fill="pink" text-anchor="middle" >LesSaules</text>
<text x="3150" y="735" fill="purple" text-anchor="middle" >0.0240964</text>
<circle cx="2800" cy="700" r="20" fill="rgb(170,0,0)" />
<text x="2800" y="700" fill="pink" text-anchor="middle" >OrlyVille</text>
<text x="2940" y="735" fill="purple" text-anchor="middle" >0.0240964</text>
<circle cx="2700" cy="700" r="20" fill="rgb(170,0,0)" />
<text x="2700" y="700" fill="pink" text-anchor="middle" >PontDeRungis</text>
<text x="2835" y="735" fill="purple" text-anchor="middle" >0.0240964</text>
<circle cx="2500" cy="700" r="20" fill="rgb(170,0,0)" />
<text x="2500" y="700" fill="pink" text-anchor="middle" >RungisLaFraternelle</text>
<text x="2625" y="735" fill="purple" text-anchor="middle" >0.0240964</text>
<circle cx="2400" cy="700" r="20" fill="rgb(170,0,0)" />
<text x="2400" y="700" fill="pink" text-anchor="middle" >CheminD'Antony</text>
<text x="2520" y="735" fill="purple" text-anchor="middle" >0.0240964</text>
<circle cx="2200" cy="700" r="20" fill="rgb(170,0,0)" />
<text x="2200" y="700" fill="pink" text-anchor="middle" >MassyVerrieres</text>
<text x="2310" y="735" fill="purple" text-anchor="middle" >0.0240964</text>
<circle cx="4200" cy="800" r="20" fill="rgb(170,0,0)" />
<text x="4200" y="800" fill="pink" text-anchor="middle" >LaNorville</text>
<text x="4410" y="840" fill="purple" text-anchor="middle" >0.0240964</text>
<circle cx="4300" cy="800" r="20" fill="rgb(170,0,0)" />
<text x="4300" y="800" fill="pink" text-anchor="middle" >Arpajon</text>
<text x="4515" y="840" fill="purple" text-anchor="middle" >0.0240964</text>
<circle cx="4400" cy="800" r="20" fill="rgb(170,0,0)" />
<text x="4400" y="800" fill="pink" text-anchor="middle" >Egly</text>
<text x="4620" y="840" fill="purple" text-anchor="middle" >0.0240964</text>
<circle cx="4500" cy="800" r="20" fill="rgb(170,0,0)" />
<text x="4500" y="800" fill="pink" text-anchor="middle" >Breuillet</text>
<text x="4725" y="840" fill="purple" text-anchor="middle" >0.0240964</text>
<circle cx="4600" cy="800" r="20" fill="rgb(170,0,0)" />
<text x="4600" y="800" fill="pink" text-anchor="middle" >BreuilletVillage</text>
<text x="4830" y="840" fill="purple" text-anchor="middle" >0.0240964</text>
<circle cx="4700" cy="800" r="20" fill="rgb(170,0,0)" />
<text x="4700" y="800" fill="pink" text-anchor="middle" >St-Cheron</text>
<text x="4935" y="840" fill="purple" text-anchor="middle" >0.0240964</text>
<circle cx="4800" cy="800" r="20" fill="rgb(170,0,0)" />
<text x="4800" y="800" fill="pink" text-anchor="middle" >Sermaise</text>
<text x="5040" y="840" fill="purple" text-anchor="middle" >0.0240964</text>
<circle cx="4900" cy="800" r="20" fill="rgb(170,0,0)" />
<text x="4900" y="800" fill="pink" text-anchor="middle" >Dourdan</text>
<text x="5145" y="840" fill="purple" text-anchor="middle" >0.0240964</text>
<circle cx="5100" cy="800" r="20" fill="rgb(85,0,0)" />
<text x="5100" y="800" fill="pink" text-anchor="middle" >DourdanLaForet</text>
<text x="5355" y="840" fill="purple" text-anchor="middle" >0.0120482</text>


</svg>
