<?xml version="1.0" encoding="utf-8"?>
<svg xmlns="http://www.w3.org/2000/svg" version="1.1" width="1500" height="800">

<line x1="200" y1="100" x2="300" y2="200" stroke="rgb(255,200,200)" />
<text x="250" y="150" fill="black" text-anchor="middle" >0</text>
<line x1="600" y1="100" x2="500" y2="200" stroke="rgb(255,200,200)" />
<text x="550" y="150" fill="black" text-anchor="middle" >1</text>
<line x1="100" y1="200" x2="300" y2="200" stroke="rgb(255,200,200)" />
<text x="200" y="200" fill="black" text-anchor="middle" >2</text>
<line x1="300" y1="200" x2="400" y2="200" stroke="rgb(255,200,200)" />
<text x="350" y="200" fill="black" text-anchor="middle" >3</text>
<line x1="400" y1="200" x2="500" y2="200" stroke="rgb(255,200,200)" />
<text x="450" y="200" fill="black" text-anchor="middle" >4</text>
<line x1="500" y1="200" x2="700" y2="200" stroke="rgb(255,200,200)" />
<text x="600" y="200" fill="black" text-anchor="middle" >5</text>
<line x1="200" y1="300" x2="300" y2="200" stroke="rgb(255,200,200)" />
<text x="250" y="250" fill="black" text-anchor="middle" >6</text>
<line x1="600" y1="300" x2="500" y2="200" stroke="rgb(255,200,200)" />
<text x="550" y="250" fill="black" text-anchor="middle" >7</text>
<circle cx="200" cy="100" r="20" fill="rgb(63.75,0,0)" />
<text x="200" y="100" fill="pink" text-anchor="middle" >A</text>
<text x="210" y="105" fill="purple" text-anchor="middle" >0.125</text>
<circle cx="600" cy="100" r="20" fill="rgb(63.75,0,0)" />
<text x="600" y="100" fill="pink" text-anchor="middle" >B</text>
<text x="630" y="105" fill="purple" text-anchor="middle" >0.125</text>
<circle cx="100" cy="200" r="20" fill="rgb(63.75,0,0)" />
<text x="100" y="200" fill="pink" text-anchor="middle" >C</text>
<text x="105" y="210" fill="purple" text-anchor="middle" >0.125</text>
<circle cx="300" cy="200" r="20" fill="rgb(255,0,0)" />
<text x="300" y="200" fill="pink" text-anchor="middle" >D</text>
<text x="315" y="210" fill="purple" text-anchor="middle" >0.5</text>
<circle cx="400" cy="200" r="20" fill="rgb(127.5,0,0)" />
<text x="400" y="200" fill="pink" text-anchor="middle" >E</text>
<text x="420" y="210" fill="purple" text-anchor="middle" >0.25</text>
<circle cx="500" cy="200" r="20" fill="rgb(255,0,0)" />
<text x="500" y="200" fill="pink" text-anchor="middle" >F</text>
<text x="525" y="210" fill="purple" text-anchor="middle" >0.5</text>
<circle cx="700" cy="200" r="20" fill="rgb(63.75,0,0)" />
<text x="700" y="200" fill="pink" text-anchor="middle" >G</text>
<text x="735" y="210" fill="purple" text-anchor="middle" >0.125</text>
<circle cx="200" cy="300" r="20" fill="rgb(63.75,0,0)" />
<text x="200" y="300" fill="pink" text-anchor="middle" >H</text>
<text x="210" y="315" fill="purple" text-anchor="middle" >0.125</text>
<circle cx="600" cy="300" r="20" fill="rgb(63.75,0,0)" />
<text x="600" y="300" fill="pink" text-anchor="middle" >I</text>
<text x="630" y="315" fill="purple" text-anchor="middle" >0.125</text>


</svg>
